ISO-10303-21;
HEADER;
FILE_DESCRIPTION(('Open CASCADE Model'),'2;1');
FILE_NAME('Open CASCADE Shape Model','2026-10-03T17:53:49',('Author'),(
    'Open CASCADE'),'Open CASCADE STEP processor 7.9','build123d',
  'Unknown');
FILE_SCHEMA(('AUTOMOTIVE_DESIGN { 1 0 10303 214 1 1 1 1 }'));
ENDSEC;
DATA;
#1 = APPLICATION_PROTOCOL_DEFINITION('international standard',
  'automotive_design',2000,#2);
#2 = APPLICATION_CONTEXT(
  'core data for automotive mechanical design processes');
#3 = SHAPE_DEFINITION_REPRESENTATION(#4,#10);
#4 = PRODUCT_DEFINITION_SHAPE('','',#5);
#5 = PRODUCT_DEFINITION('design','',#6,#9);
#6 = PRODUCT_DEFINITION_FORMATION('','',#7);
#7 = PRODUCT('COMPOUND','COMPOUND','',(#8));
#8 = PRODUCT_CONTEXT('',#2,'mechanical');
#9 = PRODUCT_DEFINITION_CONTEXT('part definition',#2,'design');
#10 = ADVANCED_BREP_SHAPE_REPRESENTATION('',(#11,#15),#980);
#11 = AXIS2_PLACEMENT_3D('',#12,#13,#14);
#12 = CARTESIAN_POINT('',(0.,0.,0.));
#13 = DIRECTION('',(0.,0.,1.));
#14 = DIRECTION('',(1.,0.,-0.));
#15 = MANIFOLD_SOLID_BREP('',#16);
#16 = CLOSED_SHELL('',(#17,#105,#140,#572,#707,#844,#973));
#17 = ADVANCED_FACE('',(#18),#32,.T.);
#18 = FACE_BOUND('',#19,.F.);
#19 = EDGE_LOOP('',(#20,#50,#77,#78));
#20 = ORIENTED_EDGE('',*,*,#21,.T.);
#21 = EDGE_CURVE('',#22,#24,#26,.T.);
#22 = VERTEX_POINT('',#23);
#23 = CARTESIAN_POINT('',(-29.31980515339,45.,0.));
#24 = VERTEX_POINT('',#25);
#25 = CARTESIAN_POINT('',(-23.31980515339,45.,0.));
#26 = SEAM_CURVE('',#27,(#31,#43),.PCURVE_S1.);
#27 = LINE('',#28,#29);
#28 = CARTESIAN_POINT('',(-29.31980515339,45.,0.));
#29 = VECTOR('',#30,1.);
#30 = DIRECTION('',(1.,0.,0.));
#31 = PCURVE('',#32,#37);
#32 = CYLINDRICAL_SURFACE('',#33,45.);
#33 = AXIS2_PLACEMENT_3D('',#34,#35,#36);
#34 = CARTESIAN_POINT('',(-29.31980515339,0.,0.));
#35 = DIRECTION('',(-1.,-0.,-0.));
#36 = DIRECTION('',(0.,1.,0.));
#37 = DEFINITIONAL_REPRESENTATION('',(#38),#42);
#38 = LINE('',#39,#40);
#39 = CARTESIAN_POINT('',(-0.,0.));
#40 = VECTOR('',#41,1.);
#41 = DIRECTION('',(-0.,-1.));
#42 = ( GEOMETRIC_REPRESENTATION_CONTEXT(2) 
PARAMETRIC_REPRESENTATION_CONTEXT() REPRESENTATION_CONTEXT('2D SPACE',''
  ) );
#43 = PCURVE('',#32,#44);
#44 = DEFINITIONAL_REPRESENTATION('',(#45),#49);
#45 = LINE('',#46,#47);
#46 = CARTESIAN_POINT('',(-6.28318530718,0.));
#47 = VECTOR('',#48,1.);
#48 = DIRECTION('',(-0.,-1.));
#49 = ( GEOMETRIC_REPRESENTATION_CONTEXT(2) 
PARAMETRIC_REPRESENTATION_CONTEXT() REPRESENTATION_CONTEXT('2D SPACE',''
  ) );
#50 = ORIENTED_EDGE('',*,*,#51,.T.);
#51 = EDGE_CURVE('',#24,#24,#52,.T.);
#52 = SURFACE_CURVE('',#53,(#58,#65),.PCURVE_S1.);
#53 = CIRCLE('',#54,45.);
#54 = AXIS2_PLACEMENT_3D('',#55,#56,#57);
#55 = CARTESIAN_POINT('',(-23.31980515339,0.,0.));
#56 = DIRECTION('',(1.,0.,0.));
#57 = DIRECTION('',(0.,1.,0.));
#58 = PCURVE('',#32,#59);
#59 = DEFINITIONAL_REPRESENTATION('',(#60),#64);
#60 = LINE('',#61,#62);
#61 = CARTESIAN_POINT('',(-0.,-6.));
#62 = VECTOR('',#63,1.);
#63 = DIRECTION('',(-1.,0.));
#64 = ( GEOMETRIC_REPRESENTATION_CONTEXT(2) 
PARAMETRIC_REPRESENTATION_CONTEXT() REPRESENTATION_CONTEXT('2D SPACE',''
  ) );
#65 = PCURVE('',#66,#71);
#66 = PLANE('',#67);
#67 = AXIS2_PLACEMENT_3D('',#68,#69,#70);
#68 = CARTESIAN_POINT('',(-23.31980515339,-3.889607488112E-15,
    2.052637289391E-15));
#69 = DIRECTION('',(1.,0.,0.));
#70 = DIRECTION('',(0.,1.,0.));
#71 = DEFINITIONAL_REPRESENTATION('',(#72),#76);
#72 = CIRCLE('',#73,45.);
#73 = AXIS2_PLACEMENT_2D('',#74,#75);
#74 = CARTESIAN_POINT('',(3.889607488112E-15,-2.052637289391E-15));
#75 = DIRECTION('',(1.,0.));
#76 = ( GEOMETRIC_REPRESENTATION_CONTEXT(2) 
PARAMETRIC_REPRESENTATION_CONTEXT() REPRESENTATION_CONTEXT('2D SPACE',''
  ) );
#77 = ORIENTED_EDGE('',*,*,#21,.F.);
#78 = ORIENTED_EDGE('',*,*,#79,.F.);
#79 = EDGE_CURVE('',#22,#22,#80,.T.);
#80 = SURFACE_CURVE('',#81,(#86,#93),.PCURVE_S1.);
#81 = CIRCLE('',#82,45.);
#82 = AXIS2_PLACEMENT_3D('',#83,#84,#85);
#83 = CARTESIAN_POINT('',(-29.31980515339,0.,0.));
#84 = DIRECTION('',(1.,0.,0.));
#85 = DIRECTION('',(0.,1.,0.));
#86 = PCURVE('',#32,#87);
#87 = DEFINITIONAL_REPRESENTATION('',(#88),#92);
#88 = LINE('',#89,#90);
#89 = CARTESIAN_POINT('',(-0.,0.));
#90 = VECTOR('',#91,1.);
#91 = DIRECTION('',(-1.,0.));
#92 = ( GEOMETRIC_REPRESENTATION_CONTEXT(2) 
PARAMETRIC_REPRESENTATION_CONTEXT() REPRESENTATION_CONTEXT('2D SPACE',''
  ) );
#93 = PCURVE('',#94,#99);
#94 = PLANE('',#95);
#95 = AXIS2_PLACEMENT_3D('',#96,#97,#98);
#96 = CARTESIAN_POINT('',(-29.31980515339,-3.889607488112E-15,
    2.052637289391E-15));
#97 = DIRECTION('',(1.,0.,0.));
#98 = DIRECTION('',(0.,1.,0.));
#99 = DEFINITIONAL_REPRESENTATION('',(#100),#104);
#100 = CIRCLE('',#101,45.);
#101 = AXIS2_PLACEMENT_2D('',#102,#103);
#102 = CARTESIAN_POINT('',(3.889607488112E-15,-2.052637289391E-15));
#103 = DIRECTION('',(1.,0.));
#104 = ( GEOMETRIC_REPRESENTATION_CONTEXT(2) 
PARAMETRIC_REPRESENTATION_CONTEXT() REPRESENTATION_CONTEXT('2D SPACE',''
  ) );
#105 = ADVANCED_FACE('',(#106,#109),#66,.T.);
#106 = FACE_BOUND('',#107,.T.);
#107 = EDGE_LOOP('',(#108));
#108 = ORIENTED_EDGE('',*,*,#51,.T.);
#109 = FACE_BOUND('',#110,.T.);
#110 = EDGE_LOOP('',(#111));
#111 = ORIENTED_EDGE('',*,*,#112,.F.);
#112 = EDGE_CURVE('',#113,#113,#115,.T.);
#113 = VERTEX_POINT('',#114);
#114 = CARTESIAN_POINT('',(-23.31980515339,35.,0.));
#115 = SURFACE_CURVE('',#116,(#121,#128),.PCURVE_S1.);
#116 = CIRCLE('',#117,35.);
#117 = AXIS2_PLACEMENT_3D('',#118,#119,#120);
#118 = CARTESIAN_POINT('',(-23.31980515339,0.,0.));
#119 = DIRECTION('',(1.,0.,0.));
#120 = DIRECTION('',(0.,1.,0.));
#121 = PCURVE('',#66,#122);
#122 = DEFINITIONAL_REPRESENTATION('',(#123),#127);
#123 = CIRCLE('',#124,35.);
#124 = AXIS2_PLACEMENT_2D('',#125,#126);
#125 = CARTESIAN_POINT('',(3.889607488112E-15,-2.052637289391E-15));
#126 = DIRECTION('',(1.,0.));
#127 = ( GEOMETRIC_REPRESENTATION_CONTEXT(2) 
PARAMETRIC_REPRESENTATION_CONTEXT() REPRESENTATION_CONTEXT('2D SPACE',''
  ) );
#128 = PCURVE('',#129,#134);
#129 = CYLINDRICAL_SURFACE('',#130,35.);
#130 = AXIS2_PLACEMENT_3D('',#131,#132,#133);
#131 = CARTESIAN_POINT('',(-29.31980515339,0.,0.));
#132 = DIRECTION('',(-1.,-0.,-0.));
#133 = DIRECTION('',(0.,1.,0.));
#134 = DEFINITIONAL_REPRESENTATION('',(#135),#139);
#135 = LINE('',#136,#137);
#136 = CARTESIAN_POINT('',(-0.,-6.));
#137 = VECTOR('',#138,1.);
#138 = DIRECTION('',(-1.,0.));
#139 = ( GEOMETRIC_REPRESENTATION_CONTEXT(2) 
PARAMETRIC_REPRESENTATION_CONTEXT() REPRESENTATION_CONTEXT('2D SPACE',''
  ) );
#140 = ADVANCED_FACE('',(#141),#129,.F.);
#141 = FACE_BOUND('',#142,.T.);
#142 = EDGE_LOOP('',(#143,#342,#363,#364,#365));
#143 = ORIENTED_EDGE('',*,*,#144,.T.);
#144 = EDGE_CURVE('',#145,#147,#149,.T.);
#145 = VERTEX_POINT('',#146);
#146 = CARTESIAN_POINT('',(-25.07716446707,0.,35.));
#147 = VERTEX_POINT('',#148);
#148 = CARTESIAN_POINT('',(-25.07716446707,35.,0.));
#149 = SURFACE_CURVE('',#150,(#183,#219),.PCURVE_S1.);
#150 = B_SPLINE_CURVE_WITH_KNOTS('',6,(#151,#152,#153,#154,#155,#156,
    #157,#158,#159,#160,#161,#162,#163,#164,#165,#166,#167,#168,#169,
    #170,#171,#172,#173,#174,#175,#176,#177,#178,#179,#180,#181,#182),
  .UNSPECIFIED.,.F.,.F.,(7,5,5,5,5,5,7),(0.,0.156000852452,
    0.236001473593,0.408002211646,0.524003043549,0.740002812721,1.),
  .UNSPECIFIED.);
#151 = CARTESIAN_POINT('',(-25.07716446707,8.572527594031E-15,35.));
#152 = CARTESIAN_POINT('',(-25.07716446707,1.42942112255,35.));
#153 = CARTESIAN_POINT('',(-25.07716446707,2.858855018343,
    34.929945891441));
#154 = CARTESIAN_POINT('',(-25.07716446707,4.283982212907,
    34.789835354655));
#155 = CARTESIAN_POINT('',(-25.07716446707,5.700526716184,
    34.580025551652));
#156 = CARTESIAN_POINT('',(-25.07716446707,7.104253629269,
    34.301207341967));
#157 = CARTESIAN_POINT('',(-25.07716446707,9.202112892082,
    33.776596383648));
#158 = CARTESIAN_POINT('',(-25.07716446707,9.908783678546,
    33.580888875379));
#159 = CARTESIAN_POINT('',(-25.07716446707,10.610422989758,
    33.367449030776));
#160 = CARTESIAN_POINT('',(-25.07716446707,11.306475727411,
    33.136440639788));
#161 = CARTESIAN_POINT('',(-25.07716446707,11.996394142368,
    32.888050603881));
#162 = CARTESIAN_POINT('',(-25.07716446707,14.148606670994,
    32.051533333243));
#163 = CARTESIAN_POINT('',(-25.07716446707,15.586743177843,
    31.401194175351));
#164 = CARTESIAN_POINT('',(-25.07716446707,16.988642099881,
    30.673567912042));
#165 = CARTESIAN_POINT('',(-25.07716446707,18.349157886398,
    29.871222997898));
#166 = CARTESIAN_POINT('',(-25.07716446707,19.663383542966,
    28.997158608813));
#167 = CARTESIAN_POINT('',(-25.07716446707,21.778663723012,
    27.419328453526));
#168 = CARTESIAN_POINT('',(-25.07716446707,22.607495547891,
    26.752762001395));
#169 = CARTESIAN_POINT('',(-25.07716446707,23.411750583372,
    26.056204105326));
#170 = CARTESIAN_POINT('',(-25.07716446707,24.190081207654,
    25.330793529187));
#171 = CARTESIAN_POINT('',(-25.07716446707,24.94121147541,
    24.577748809467));
#172 = CARTESIAN_POINT('',(-25.07716446707,27.009691017709,
    22.347119871653));
#173 = CARTESIAN_POINT('',(-25.07716446707,28.257010326721,
    20.804504183226));
#174 = CARTESIAN_POINT('',(-25.07716446707,29.39804063158,
    19.178967674143));
#175 = CARTESIAN_POINT('',(-25.07716446707,30.426070119111,
    17.479710638945));
#176 = CARTESIAN_POINT('',(-25.07716446707,31.335382533703,
    15.716582863225));
#177 = CARTESIAN_POINT('',(-25.07716446707,33.06754913262,11.71378202732
    ));
#178 = CARTESIAN_POINT('',(-25.07716446707,33.835166353321,9.44995826863
    ));
#179 = CARTESIAN_POINT('',(-25.07716446707,34.416186108759,
    7.127249510306));
#180 = CARTESIAN_POINT('',(-25.07716446707,34.805411424521,
    4.764822032943));
#181 = CARTESIAN_POINT('',(-25.07716446707,35.,2.382329746659));
#182 = CARTESIAN_POINT('',(-25.07716446707,35.,-8.172044383204E-15));
#183 = PCURVE('',#129,#184);
#184 = DEFINITIONAL_REPRESENTATION('',(#185),#218);
#185 = B_SPLINE_CURVE_WITH_KNOTS('',6,(#186,#187,#188,#189,#190,#191,
    #192,#193,#194,#195,#196,#197,#198,#199,#200,#201,#202,#203,#204,
    #205,#206,#207,#208,#209,#210,#211,#212,#213,#214,#215,#216,#217),
  .UNSPECIFIED.,.F.,.F.,(7,5,5,5,5,5,7),(0.,0.156000852452,
    0.236001473593,0.408002211646,0.524003043549,0.740002812721,1.),
  .UNSPECIFIED.);
#186 = CARTESIAN_POINT('',(-1.570796326795,-4.242640686319));
#187 = CARTESIAN_POINT('',(-1.529955723293,-4.242640686319));
#188 = CARTESIAN_POINT('',(-1.48911475617,-4.242640686319));
#189 = CARTESIAN_POINT('',(-1.448274213305,-4.242640686319));
#190 = CARTESIAN_POINT('',(-1.407433670439,-4.242640686319));
#191 = CARTESIAN_POINT('',(-1.366592703316,-4.242640686319));
#192 = CARTESIAN_POINT('',(-1.304808152416,-4.242640686319));
#193 = CARTESIAN_POINT('',(-1.283864200667,-4.242640686319));
#194 = CARTESIAN_POINT('',(-1.262920246743,-4.242640686319));
#195 = CARTESIAN_POINT('',(-1.241976292819,-4.242640686319));
#196 = CARTESIAN_POINT('',(-1.22103234107,-4.242640686319));
#197 = CARTESIAN_POINT('',(-1.155059063162,-4.242640686319));
#198 = CARTESIAN_POINT('',(-1.110029141479,-4.242640686319));
#199 = CARTESIAN_POINT('',(-1.064999909567,-4.242640686319));
#200 = CARTESIAN_POINT('',(-1.019970677655,-4.242640686319));
#201 = CARTESIAN_POINT('',(-0.974940755972,-4.242640686319));
#202 = CARTESIAN_POINT('',(-0.899542719733,-4.242640686319));
#203 = CARTESIAN_POINT('',(-0.869173986098,-4.242640686319));
#204 = CARTESIAN_POINT('',(-0.838805238509,-4.242640686319));
#205 = CARTESIAN_POINT('',(-0.808436490919,-4.242640686319));
#206 = CARTESIAN_POINT('',(-0.778067757284,-4.242640686319));
#207 = CARTESIAN_POINT('',(-0.691150893064,-4.242640686319));
#208 = CARTESIAN_POINT('',(-0.634600900744,-4.242640686319));
#209 = CARTESIAN_POINT('',(-0.57805304826,-4.242640686319));
#210 = CARTESIAN_POINT('',(-0.521505195777,-4.242640686319));
#211 = CARTESIAN_POINT('',(-0.464955203457,-4.242640686319));
#212 = CARTESIAN_POINT('',(-0.340340480777,-4.242640686319));
#213 = CARTESIAN_POINT('',(-0.272269318961,-4.24264068632));
#214 = CARTESIAN_POINT('',(-0.204203522483,-4.242640686319));
#215 = CARTESIAN_POINT('',(-0.136137726006,-4.24264068632));
#216 = CARTESIAN_POINT('',(-6.806656419025E-02,-4.242640686319));
#217 = CARTESIAN_POINT('',(0.,-4.242640686319));
#218 = ( GEOMETRIC_REPRESENTATION_CONTEXT(2) 
PARAMETRIC_REPRESENTATION_CONTEXT() REPRESENTATION_CONTEXT('2D SPACE',''
  ) );
#219 = PCURVE('',#220,#307);
#220 = SURFACE_OF_REVOLUTION('',#221,#304);
#221 = B_SPLINE_CURVE_WITH_KNOTS('',3,(#222,#223,#224,#225,#226,#227,
    #228,#229,#230,#231,#232,#233,#234,#235,#236,#237,#238,#239,#240,
    #241,#242,#243,#244,#245,#246,#247,#248,#249,#250,#251,#252,#253,
    #254,#255,#256,#257,#258,#259,#260,#261,#262,#263,#264,#265,#266,
    #267,#268,#269,#270,#271,#272,#273,#274,#275,#276,#277,#278,#279,
    #280,#281,#282,#283,#284,#285,#286,#287,#288,#289,#290,#291,#292,
    #293,#294,#295,#296,#297,#298,#299,#300,#301,#302,#303),
  .UNSPECIFIED.,.F.,.F.,(4,1,1,1,1,1,1,1,1,1,1,1,1,1,1,1,1,1,1,1,1,1,1,1
    ,1,1,1,1,1,1,1,1,1,1,1,1,1,1,1,1,1,1,1,1,1,1,1,1,1,1,1,1,1,1,1,1,1,1
    ,1,1,1,1,1,1,1,1,1,1,1,1,1,1,1,1,1,1,1,1,1,4),(0.,2.102620705714,
    3.786520842662,5.891449825166,7.575513527002,9.259749250621,
    11.365377042617,13.050223178412,15.156807167807,16.842572705396,
    18.528845926375,20.637492294281,22.325130333176,24.435675045171,
    26.124985415699,27.815137528481,29.929101678163,31.621368714757,
    33.738167383931,35.432854430839,37.128714643053,39.250279103187,
    40.948997743882,43.074324072817,44.776202886428,46.479582659068,
    48.611006390908,50.317979292667,52.026644759593,54.164944266301,
    55.877632017251,58.021143872669,59.73814857524,61.45716595147,
    63.608853978233,65.332610119939,67.490402733656,69.219186851927,
    70.950297826643,73.117542939264,74.854095310662,77.028319498886,
    78.770596330671,80.51550752558,82.700433423197,84.451473163941,
    84.994668932387,85.099681411528,85.204693890669,85.335954936795,
    85.440967415936,85.572228462063,85.677240941204,85.782253420345,
    85.913514466471,86.018526945612,86.123539424753,87.113598827356,
    88.363610352651,89.925974216429,91.175985741724,92.425997267019,
    93.988361130797,95.238372656092,96.80073651987,98.050748045165,
    99.300759570459,100.86312343423,102.24674411408,104.14319072349,
    105.66034801101,107.17750529854,109.07395190794,110.59110919547,
    112.48755580488,114.0047130924,115.52187037993,117.41831698933,
    118.93547427686,120.45263156438),.UNSPECIFIED.);
#222 = CARTESIAN_POINT('',(81.362188384455,0.,45.380430348003));
#223 = CARTESIAN_POINT('',(80.671961084182,0.,45.258719523833));
#224 = CARTESIAN_POINT('',(79.429800105138,0.,45.03478067978));
#225 = CARTESIAN_POINT('',(77.499574298127,0.,44.673050634656));
#226 = CARTESIAN_POINT('',(75.708831254946,0.,44.324667110472));
#227 = CARTESIAN_POINT('',(73.920430141305,0.,43.963930152095));
#228 = CARTESIAN_POINT('',(72.134044023681,0.,43.592198814835));
#229 = CARTESIAN_POINT('',(70.349997914883,0.,43.208113323596));
#230 = CARTESIAN_POINT('',(68.431224975185,0.,42.781177163474));
#231 = CARTESIAN_POINT('',(66.651828732832,0.,42.372378559309));
#232 = CARTESIAN_POINT('',(64.87483185825,0.,41.951242222977));
#233 = CARTESIAN_POINT('',(63.099773703728,0.,41.519092224247));
#234 = CARTESIAN_POINT('',(61.327112982428,0.,41.074603045263));
#235 = CARTESIAN_POINT('',(59.420615066732,0.,40.582622375805));
#236 = CARTESIAN_POINT('',(57.65263028277,0.,40.113429247266));
#237 = CARTESIAN_POINT('',(55.887100537637,0.,39.631918208006));
#238 = CARTESIAN_POINT('',(54.12343473814,0.,39.139369591452));
#239 = CARTESIAN_POINT('',(52.36222219845,0.,38.634500929888));
#240 = CARTESIAN_POINT('',(50.468066139169,0.,38.077503110472));
#241 = CARTESIAN_POINT('',(48.711554209673,0.,37.547942104405));
#242 = CARTESIAN_POINT('',(46.957550922881,0.,37.006086920014));
#243 = CARTESIAN_POINT('',(45.205338624897,0.,36.453165760802));
#244 = CARTESIAN_POINT('',(43.455633359795,0.,35.887947610654));
#245 = CARTESIAN_POINT('',(41.573881803159,0.,35.265966086936));
#246 = CARTESIAN_POINT('',(39.828900042395,0.,34.676069374935));
#247 = CARTESIAN_POINT('',(38.086478060568,0.,34.073905825732));
#248 = CARTESIAN_POINT('',(36.345776198025,0.,33.460643593323));
#249 = CARTESIAN_POINT('',(34.607632953319,0.,32.835111148553));
#250 = CARTESIAN_POINT('',(32.872078061412,0.,32.197329463685));
#251 = CARTESIAN_POINT('',(31.138202727765,0.,31.548427912785));
#252 = CARTESIAN_POINT('',(29.406914719365,0.,30.887273345434));
#253 = CARTESIAN_POINT('',(27.545013868184,0.,30.161990412391));
#254 = CARTESIAN_POINT('',(25.818481395703,0.,29.476182922699));
#255 = CARTESIAN_POINT('',(24.094584024169,0.,28.778158595276));
#256 = CARTESIAN_POINT('',(22.372299396073,0.,28.068975382215));
#257 = CARTESIAN_POINT('',(20.652648782804,0.,27.347570814792));
#258 = CARTESIAN_POINT('',(18.803289291057,0.,26.557413465518));
#259 = CARTESIAN_POINT('',(17.088411278397,0.,25.811373756104));
#260 = CARTESIAN_POINT('',(15.376211298339,0.,25.053152618497));
#261 = CARTESIAN_POINT('',(13.665561106867,0.,24.283728129017));
#262 = CARTESIAN_POINT('',(11.957584600451,0.,23.502124455288));
#263 = CARTESIAN_POINT('',(10.120818287501,0.,22.647119097193));
#264 = CARTESIAN_POINT('',(8.417588970408,0.,21.840983174737));
#265 = CARTESIAN_POINT('',(6.717256782991,0.,21.022324555534));
#266 = CARTESIAN_POINT('',(5.017752939199,0.,20.193810271946));
#267 = CARTESIAN_POINT('',(3.323763532992,0.,19.347246151987));
#268 = CARTESIAN_POINT('',(1.984896464177,0.,18.687033910273));
#269 = CARTESIAN_POINT('',(1.278708768183,0.,18.310436886955));
#270 = CARTESIAN_POINT('',(1.049052853632,0.,18.208801895823));
#271 = CARTESIAN_POINT('',(0.943138058532,0.,18.167201745729));
#272 = CARTESIAN_POINT('',(0.835547108113,0.,18.130103109482));
#273 = CARTESIAN_POINT('',(0.718070785075,0.,18.095244300764));
#274 = CARTESIAN_POINT('',(0.60766733065,0.,18.067610053415));
#275 = CARTESIAN_POINT('',(0.496191026363,0.,18.044788833441));
#276 = CARTESIAN_POINT('',(0.383919880411,0.,18.026256541826));
#277 = CARTESIAN_POINT('',(0.270931074111,0.,18.012656990686));
#278 = CARTESIAN_POINT('',(0.157482871089,0.,18.003756251854));
#279 = CARTESIAN_POINT('',(-0.242398181254,0.,17.990454821815));
#280 = CARTESIAN_POINT('',(-1.024447898647,0.,18.020472522803));
#281 = CARTESIAN_POINT('',(-2.288592851574,0.,18.116023380675));
#282 = CARTESIAN_POINT('',(-3.628617419319,0.,18.323671817611));
#283 = CARTESIAN_POINT('',(-4.949652660221,0.,18.624736825165));
#284 = CARTESIAN_POINT('',(-6.24866493634,0.,19.010385444472));
#285 = CARTESIAN_POINT('',(-7.517149565532,0.,19.48874505957));
#286 = CARTESIAN_POINT('',(-8.841765377828,0.,20.100692887113));
#287 = CARTESIAN_POINT('',(-10.0282891867,0.,20.756477000163));
#288 = CARTESIAN_POINT('',(-11.16396157191,0.,21.495651419185));
#289 = CARTESIAN_POINT('',(-12.24967226163,0.,22.306255696312));
#290 = CARTESIAN_POINT('',(-13.30959982464,0.,23.22173837607));
#291 = CARTESIAN_POINT('',(-14.44399236978,0.,24.370714916058));
#292 = CARTESIAN_POINT('',(-15.57700917598,0.,25.498925439635));
#293 = CARTESIAN_POINT('',(-16.73865490827,0.,26.661711710209));
#294 = CARTESIAN_POINT('',(-17.90098893684,0.,27.823748033709));
#295 = CARTESIAN_POINT('',(-19.06313561327,0.,28.985988490492));
#296 = CARTESIAN_POINT('',(-20.31473741975,0.,30.23756752208));
#297 = CARTESIAN_POINT('',(-21.47692578283,0.,31.39976255834));
#298 = CARTESIAN_POINT('',(-22.6391180768,0.,32.561953311619));
#299 = CARTESIAN_POINT('',(-23.80130944095,0.,33.72414507801));
#300 = CARTESIAN_POINT('',(-24.96350105842,0.,34.886336568381));
#301 = CARTESIAN_POINT('',(-26.12569260076,0.,36.048528140623));
#302 = CARTESIAN_POINT('',(-26.84088740779,0.,36.763722941514));
#303 = CARTESIAN_POINT('',(-27.19848480983,0.,37.12132034356));
#304 = AXIS1_PLACEMENT('',#305,#306);
#305 = CARTESIAN_POINT('',(0.,0.,0.));
#306 = DIRECTION('',(1.,0.,0.));
#307 = DEFINITIONAL_REPRESENTATION('',(#308),#341);
#308 = B_SPLINE_CURVE_WITH_KNOTS('',6,(#309,#310,#311,#312,#313,#314,
    #315,#316,#317,#318,#319,#320,#321,#322,#323,#324,#325,#326,#327,
    #328,#329,#330,#331,#332,#333,#334,#335,#336,#337,#338,#339,#340),
  .UNSPECIFIED.,.F.,.F.,(7,5,5,5,5,5,7),(0.,0.156000852452,
    0.236001473593,0.408002211646,0.524003043549,0.740002812721,1.),
  .UNSPECIFIED.);
#309 = CARTESIAN_POINT('',(6.28318530718,117.45263156497));
#310 = CARTESIAN_POINT('',(6.242344703678,117.45263156497));
#311 = CARTESIAN_POINT('',(6.201503736555,117.45263156497));
#312 = CARTESIAN_POINT('',(6.16066319369,117.45263156497));
#313 = CARTESIAN_POINT('',(6.119822650824,117.45263156497));
#314 = CARTESIAN_POINT('',(6.078981683701,117.45263156497));
#315 = CARTESIAN_POINT('',(6.017197132801,117.45263156497));
#316 = CARTESIAN_POINT('',(5.996253181052,117.45263156497));
#317 = CARTESIAN_POINT('',(5.975309227128,117.45263156497));
#318 = CARTESIAN_POINT('',(5.954365273204,117.45263156497));
#319 = CARTESIAN_POINT('',(5.933421321455,117.45263156497));
#320 = CARTESIAN_POINT('',(5.867448043547,117.45263156497));
#321 = CARTESIAN_POINT('',(5.822418121864,117.45263156497));
#322 = CARTESIAN_POINT('',(5.777388889952,117.45263156497));
#323 = CARTESIAN_POINT('',(5.73235965804,117.45263156497));
#324 = CARTESIAN_POINT('',(5.687329736357,117.45263156497));
#325 = CARTESIAN_POINT('',(5.611931700118,117.45263156497));
#326 = CARTESIAN_POINT('',(5.581562966482,117.45263156497));
#327 = CARTESIAN_POINT('',(5.551194218893,117.45263156497));
#328 = CARTESIAN_POINT('',(5.520825471304,117.45263156497));
#329 = CARTESIAN_POINT('',(5.490456737668,117.45263156497));
#330 = CARTESIAN_POINT('',(5.403539873448,117.45263156497));
#331 = CARTESIAN_POINT('',(5.346989881129,117.45263156497));
#332 = CARTESIAN_POINT('',(5.290442028645,117.45263156497));
#333 = CARTESIAN_POINT('',(5.233894176162,117.45263156497));
#334 = CARTESIAN_POINT('',(5.177344183842,117.45263156497));
#335 = CARTESIAN_POINT('',(5.052729461161,117.45263156497));
#336 = CARTESIAN_POINT('',(4.984658299345,117.45263156497));
#337 = CARTESIAN_POINT('',(4.916592502869,117.45263156497));
#338 = CARTESIAN_POINT('',(4.84852670639,117.45263156497));
#339 = CARTESIAN_POINT('',(4.780455544575,117.45263156497));
#340 = CARTESIAN_POINT('',(4.712388980385,117.45263156497));
#341 = ( GEOMETRIC_REPRESENTATION_CONTEXT(2) 
PARAMETRIC_REPRESENTATION_CONTEXT() REPRESENTATION_CONTEXT('2D SPACE',''
  ) );
#342 = ORIENTED_EDGE('',*,*,#343,.T.);
#343 = EDGE_CURVE('',#147,#113,#344,.T.);
#344 = SEAM_CURVE('',#345,(#349,#356),.PCURVE_S1.);
#345 = LINE('',#346,#347);
#346 = CARTESIAN_POINT('',(-29.31980515339,35.,0.));
#347 = VECTOR('',#348,1.);
#348 = DIRECTION('',(1.,0.,0.));
#349 = PCURVE('',#129,#350);
#350 = DEFINITIONAL_REPRESENTATION('',(#351),#355);
#351 = LINE('',#352,#353);
#352 = CARTESIAN_POINT('',(-6.28318530718,0.));
#353 = VECTOR('',#354,1.);
#354 = DIRECTION('',(-0.,-1.));
#355 = ( GEOMETRIC_REPRESENTATION_CONTEXT(2) 
PARAMETRIC_REPRESENTATION_CONTEXT() REPRESENTATION_CONTEXT('2D SPACE',''
  ) );
#356 = PCURVE('',#129,#357);
#357 = DEFINITIONAL_REPRESENTATION('',(#358),#362);
#358 = LINE('',#359,#360);
#359 = CARTESIAN_POINT('',(-0.,0.));
#360 = VECTOR('',#361,1.);
#361 = DIRECTION('',(-0.,-1.));
#362 = ( GEOMETRIC_REPRESENTATION_CONTEXT(2) 
PARAMETRIC_REPRESENTATION_CONTEXT() REPRESENTATION_CONTEXT('2D SPACE',''
  ) );
#363 = ORIENTED_EDGE('',*,*,#112,.T.);
#364 = ORIENTED_EDGE('',*,*,#343,.F.);
#365 = ORIENTED_EDGE('',*,*,#366,.T.);
#366 = EDGE_CURVE('',#147,#145,#367,.T.);
#367 = SURFACE_CURVE('',#368,(#434,#503),.PCURVE_S1.);
#368 = B_SPLINE_CURVE_WITH_KNOTS('',8,(#369,#370,#371,#372,#373,#374,
    #375,#376,#377,#378,#379,#380,#381,#382,#383,#384,#385,#386,#387,
    #388,#389,#390,#391,#392,#393,#394,#395,#396,#397,#398,#399,#400,
    #401,#402,#403,#404,#405,#406,#407,#408,#409,#410,#411,#412,#413,
    #414,#415,#416,#417,#418,#419,#420,#421,#422,#423,#424,#425,#426,
    #427,#428,#429,#430,#431,#432,#433),.UNSPECIFIED.,.F.,.F.,(9,7,7,7,7
    ,7,7,7,7,9),(0.,6.134038231014E-02,0.121347301964,0.22402250135,
    0.378679527798,0.533336554246,0.636011753632,0.78933645653,
    0.943993482978,1.),.UNSPECIFIED.);
#369 = CARTESIAN_POINT('',(-25.07716446707,35.,-7.105427357601E-15));
#370 = CARTESIAN_POINT('',(-25.07716446707,35.,-1.264485015333));
#371 = CARTESIAN_POINT('',(-25.07716446707,34.947790284498,
    -2.528985611774));
#372 = CARTESIAN_POINT('',(-25.07716446707,34.843368638874,
    -3.790964047095));
#373 = CARTESIAN_POINT('',(-25.07716446707,34.686883349964,
    -5.04790396779));
#374 = CARTESIAN_POINT('',(-25.07716446707,34.47862581988,
    -6.297309590896));
#375 = CARTESIAN_POINT('',(-25.07716446707,34.219028079567,
    -7.536705598842));
#376 = CARTESIAN_POINT('',(-25.07716446707,33.908665202084,
    -8.763637747363));
#377 = CARTESIAN_POINT('',(-25.07716446707,33.195694727454,
    -11.16136247984));
#378 = CARTESIAN_POINT('',(-25.07716446707,32.795230853886,
    -12.33282333081));
#379 = CARTESIAN_POINT('',(-25.07716446707,32.347546022906,
    -13.48777979788));
#380 = CARTESIAN_POINT('',(-25.07716446707,31.853441734544,
    -14.62401252156));
#381 = CARTESIAN_POINT('',(-25.07716446707,31.313839948976,
    -15.73935720511));
#382 = CARTESIAN_POINT('',(-25.07716446707,30.729781021674,
    -16.83170390747));
#383 = CARTESIAN_POINT('',(-25.07716446707,30.1024255856,-17.89899814817
    ));
#384 = CARTESIAN_POINT('',(-25.07716446707,28.287739035869,
    -20.71916242109));
#385 = CARTESIAN_POINT('',(-25.07716446707,27.019293426499,
    -22.42009468418));
#386 = CARTESIAN_POINT('',(-25.07716446707,25.634229511659,
    -24.03184363268));
#387 = CARTESIAN_POINT('',(-25.07716446707,24.139946259103,
    -25.54513325961));
#388 = CARTESIAN_POINT('',(-25.07716446707,22.54462085028,-26.9514990633
    ));
#389 = CARTESIAN_POINT('',(-25.07716446707,20.85716641908,
    -28.24325533435));
#390 = CARTESIAN_POINT('',(-25.07716446707,19.087262324069,
    -29.41353919822));
#391 = CARTESIAN_POINT('',(-25.07716446707,14.47119263814,
    -32.02731328047));
#392 = CARTESIAN_POINT('',(-25.07716446707,11.532053846173,
    -33.31014709734));
#393 = CARTESIAN_POINT('',(-25.07716446707,8.464913926553,
    -34.28341113406));
#394 = CARTESIAN_POINT('',(-25.07716446707,5.308082837946,-34.9330988787
    ));
#395 = CARTESIAN_POINT('',(-25.07716446707,2.100752482204,
    -35.25044518554));
#396 = CARTESIAN_POINT('',(-25.07716446707,-1.117050569388,
    -35.23217795685));
#397 = CARTESIAN_POINT('',(-25.07716446707,-4.304584979872,
    -34.88029186355));
#398 = CARTESIAN_POINT('',(-25.07716446707,-10.53591271467,
    -33.52847678622));
#399 = CARTESIAN_POINT('',(-25.07716446707,-13.5827198177,
    -32.52789399747));
#400 = CARTESIAN_POINT('',(-25.07716446707,-16.51883108111,
    -31.2111401023));
#401 = CARTESIAN_POINT('',(-25.07716446707,-19.30634102734,
    -29.59328195415));
#402 = CARTESIAN_POINT('',(-25.07716446707,-21.91017711306,
    -27.69388354215));
#403 = CARTESIAN_POINT('',(-25.07716446707,-24.29830261606,
    -25.53716224516));
#404 = CARTESIAN_POINT('',(-25.07716446707,-26.44165537115,
    -23.15174018446));
#405 = CARTESIAN_POINT('',(-25.07716446707,-29.55968379949,
    -18.86014222817));
#406 = CARTESIAN_POINT('',(-25.07716446707,-30.68554702788,
    -17.0616548586));
#407 = CARTESIAN_POINT('',(-25.07716446707,-31.68603712566,
    -15.18677985332));
#408 = CARTESIAN_POINT('',(-25.07716446707,-32.55518865842,
    -13.24577404526));
#409 = CARTESIAN_POINT('',(-25.07716446707,-33.2880745001,
    -11.24932562947));
#410 = CARTESIAN_POINT('',(-25.07716446707,-33.88076003182,
    -9.208526623772));
#411 = CARTESIAN_POINT('',(-25.07716446707,-34.33035515965,
    -7.134885129064));
#412 = CARTESIAN_POINT('',(-25.07716446707,-35.09033490636,
    -1.912652497336));
#413 = CARTESIAN_POINT('',(-25.07716446707,-35.2229194408,1.263510271641
    ));
#414 = CARTESIAN_POINT('',(-25.07716446707,-35.02640758071,
    4.447065162279));
#415 = CARTESIAN_POINT('',(-25.07716446707,-34.50153143569,
    7.598280110628));
#416 = CARTESIAN_POINT('',(-25.07716446707,-33.65406793508,
    10.678451572614));
#417 = CARTESIAN_POINT('',(-25.07716446707,-32.49503341224,
    13.650029878265));
#418 = CARTESIAN_POINT('',(-25.07716446707,-31.04045436191,
    16.476651250248));
#419 = CARTESIAN_POINT('',(-25.07716446707,-27.57150181326,
    21.793955586275));
#420 = CARTESIAN_POINT('',(-25.07716446707,-25.55071011068,
    24.28405605325));
#421 = CARTESIAN_POINT('',(-25.07716446707,-23.27396390501,
    26.55804305518));
#422 = CARTESIAN_POINT('',(-25.07716446707,-20.76885055525,
    28.585870413459));
#423 = CARTESIAN_POINT('',(-25.07716446707,-18.06614953476,
    30.341741673155));
#424 = CARTESIAN_POINT('',(-25.07716446707,-15.19990610888,
    31.804355359578));
#425 = CARTESIAN_POINT('',(-25.07716446707,-12.20722085546,
    32.956759114352));
#426 = CARTESIAN_POINT('',(-25.07716446707,-8.014889241085,
    34.089507085904));
#427 = CARTESIAN_POINT('',(-25.07716446707,-6.888963163007,
    34.348641478845));
#428 = CARTESIAN_POINT('',(-25.07716446707,-5.75353612297,
    34.565256197821));
#429 = CARTESIAN_POINT('',(-25.07716446707,-4.610483829855,
    34.738950844962));
#430 = CARTESIAN_POINT('',(-25.07716446707,-3.46169536046,
    34.869424703753));
#431 = CARTESIAN_POINT('',(-25.07716446707,-2.309072834191,
    34.956475330758));
#432 = CARTESIAN_POINT('',(-25.07716446707,-1.154531466346,35.));
#433 = CARTESIAN_POINT('',(-25.07716446707,0.,35.));
#434 = PCURVE('',#129,#435);
#435 = DEFINITIONAL_REPRESENTATION('',(#436),#502);
#436 = B_SPLINE_CURVE_WITH_KNOTS('',8,(#437,#438,#439,#440,#441,#442,
    #443,#444,#445,#446,#447,#448,#449,#450,#451,#452,#453,#454,#455,
    #456,#457,#458,#459,#460,#461,#462,#463,#464,#465,#466,#467,#468,
    #469,#470,#471,#472,#473,#474,#475,#476,#477,#478,#479,#480,#481,
    #482,#483,#484,#485,#486,#487,#488,#489,#490,#491,#492,#493,#494,
    #495,#496,#497,#498,#499,#500,#501),.UNSPECIFIED.,.F.,.F.,(9,7,7,7,7
    ,7,7,7,7,9),(0.,6.134038231014E-02,0.121347301964,0.22402250135,
    0.378679527798,0.533336554246,0.636011753632,0.78933645653,
    0.943993482978,1.),.UNSPECIFIED.);
#437 = CARTESIAN_POINT('',(-6.28318530718,-4.242640686319));
#438 = CARTESIAN_POINT('',(-6.247057163884,-4.242640686319));
#439 = CARTESIAN_POINT('',(-6.210928577662,-4.242640686319));
#440 = CARTESIAN_POINT('',(-6.174800188337,-4.242640686319));
#441 = CARTESIAN_POINT('',(-6.138672045115,-4.242640686319));
#442 = CARTESIAN_POINT('',(-6.102543901892,-4.242640686319));
#443 = CARTESIAN_POINT('',(-6.066415512567,-4.242640686319));
#444 = CARTESIAN_POINT('',(-6.030286926345,-4.242640686319));
#445 = CARTESIAN_POINT('',(-5.958816020088,-4.242640686319));
#446 = CARTESIAN_POINT('',(-5.923472860059,-4.242640686319));
#447 = CARTESIAN_POINT('',(-5.888129876538,-4.242640686319));
#448 = CARTESIAN_POINT('',(-5.852787113638,-4.242640686319));
#449 = CARTESIAN_POINT('',(-5.817444350738,-4.242640686319));
#450 = CARTESIAN_POINT('',(-5.782101367217,-4.242640686319));
#451 = CARTESIAN_POINT('',(-5.746758207188,-4.242640686319));
#452 = CARTESIAN_POINT('',(-5.650941997916,-4.242640686319));
#453 = CARTESIAN_POINT('',(-5.590462859649,-4.242640686319));
#454 = CARTESIAN_POINT('',(-5.529986252951,-4.242640686319));
#455 = CARTESIAN_POINT('',(-5.4695128099,-4.242640686319));
#456 = CARTESIAN_POINT('',(-5.409039366849,-4.242640686319));
#457 = CARTESIAN_POINT('',(-5.348562760151,-4.242640686319));
#458 = CARTESIAN_POINT('',(-5.288083621884,-4.242640686319));
#459 = CARTESIAN_POINT('',(-5.136520570281,-4.242640686319));
#460 = CARTESIAN_POINT('',(-5.045386951755,-4.242640686319));
#461 = CARTESIAN_POINT('',(-4.954277029476,-4.242640686319));
#462 = CARTESIAN_POINT('',(-4.863185427764,-4.24264068632));
#463 = CARTESIAN_POINT('',(-4.772093826028,-4.242640686319));
#464 = CARTESIAN_POINT('',(-4.680983903763,-4.242640686319));
#465 = CARTESIAN_POINT('',(-4.589850285232,-4.242640686319));
#466 = CARTESIAN_POINT('',(-4.407671074649,-4.242640686319));
#467 = CARTESIAN_POINT('',(-4.316537456121,-4.242640686319));
#468 = CARTESIAN_POINT('',(-4.225427533846,-4.242640686319));
#469 = CARTESIAN_POINT('',(-4.134335932127,-4.24264068632));
#470 = CARTESIAN_POINT('',(-4.043244330399,-4.242640686319));
#471 = CARTESIAN_POINT('',(-3.952134408129,-4.242640686319));
#472 = CARTESIAN_POINT('',(-3.8610007896,-4.242640686319));
#473 = CARTESIAN_POINT('',(-3.709437737998,-4.242640686319));
#474 = CARTESIAN_POINT('',(-3.64895859973,-4.242640686319));
#475 = CARTESIAN_POINT('',(-3.588481993032,-4.242640686319));
#476 = CARTESIAN_POINT('',(-3.528008549981,-4.242640686319));
#477 = CARTESIAN_POINT('',(-3.467535106931,-4.242640686319));
#478 = CARTESIAN_POINT('',(-3.407058500233,-4.242640686319));
#479 = CARTESIAN_POINT('',(-3.346579361965,-4.242640686319));
#480 = CARTESIAN_POINT('',(-3.195801019788,-4.242640686319));
#481 = CARTESIAN_POINT('',(-3.105453960989,-4.242640686319));
#482 = CARTESIAN_POINT('',(-3.015129539319,-4.24264068632));
#483 = CARTESIAN_POINT('',(-2.924822760497,-4.242640686319));
#484 = CARTESIAN_POINT('',(-2.834515981659,-4.242640686319));
#485 = CARTESIAN_POINT('',(-2.744191559997,-4.242640686319));
#486 = CARTESIAN_POINT('',(-2.653844501196,-4.242640686319));
#487 = CARTESIAN_POINT('',(-2.472450000038,-4.242640686319));
#488 = CARTESIAN_POINT('',(-2.381316381507,-4.242640686319));
#489 = CARTESIAN_POINT('',(-2.290206459241,-4.242640686319));
#490 = CARTESIAN_POINT('',(-2.199114857508,-4.242640686319));
#491 = CARTESIAN_POINT('',(-2.108023255793,-4.242640686319));
#492 = CARTESIAN_POINT('',(-2.016913333516,-4.242640686319));
#493 = CARTESIAN_POINT('',(-1.925779714989,-4.242640686319));
#494 = CARTESIAN_POINT('',(-1.801703496372,-4.242640686319));
#495 = CARTESIAN_POINT('',(-1.768716601341,-4.242640686319));
#496 = CARTESIAN_POINT('',(-1.735729831533,-4.242640686319));
#497 = CARTESIAN_POINT('',(-1.702743218246,-4.242640686319));
#498 = CARTESIAN_POINT('',(-1.669756604958,-4.242640686319));
#499 = CARTESIAN_POINT('',(-1.63676983515,-4.242640686319));
#500 = CARTESIAN_POINT('',(-1.603782940119,-4.242640686319));
#501 = CARTESIAN_POINT('',(-1.570796326795,-4.242640686319));
#502 = ( GEOMETRIC_REPRESENTATION_CONTEXT(2) 
PARAMETRIC_REPRESENTATION_CONTEXT() REPRESENTATION_CONTEXT('2D SPACE',''
  ) );
#503 = PCURVE('',#220,#504);
#504 = DEFINITIONAL_REPRESENTATION('',(#505),#571);
#505 = B_SPLINE_CURVE_WITH_KNOTS('',8,(#506,#507,#508,#509,#510,#511,
    #512,#513,#514,#515,#516,#517,#518,#519,#520,#521,#522,#523,#524,
    #525,#526,#527,#528,#529,#530,#531,#532,#533,#534,#535,#536,#537,
    #538,#539,#540,#541,#542,#543,#544,#545,#546,#547,#548,#549,#550,
    #551,#552,#553,#554,#555,#556,#557,#558,#559,#560,#561,#562,#563,
    #564,#565,#566,#567,#568,#569,#570),.UNSPECIFIED.,.F.,.F.,(9,7,7,7,7
    ,7,7,7,7,9),(0.,6.134038231014E-02,0.121347301964,0.22402250135,
    0.378679527798,0.533336554246,0.636011753632,0.78933645653,
    0.943993482978,1.),.UNSPECIFIED.);
#506 = CARTESIAN_POINT('',(4.712388980385,117.45263156497));
#507 = CARTESIAN_POINT('',(4.67626083709,117.45263156497));
#508 = CARTESIAN_POINT('',(4.640132250867,117.45263156497));
#509 = CARTESIAN_POINT('',(4.604003861542,117.45263156497));
#510 = CARTESIAN_POINT('',(4.56787571832,117.45263156497));
#511 = CARTESIAN_POINT('',(4.531747575097,117.45263156497));
#512 = CARTESIAN_POINT('',(4.495619185772,117.45263156497));
#513 = CARTESIAN_POINT('',(4.45949059955,117.45263156497));
#514 = CARTESIAN_POINT('',(4.388019693293,117.45263156497));
#515 = CARTESIAN_POINT('',(4.352676533264,117.45263156497));
#516 = CARTESIAN_POINT('',(4.317333549743,117.45263156497));
#517 = CARTESIAN_POINT('',(4.281990786843,117.45263156497));
#518 = CARTESIAN_POINT('',(4.246648023943,117.45263156497));
#519 = CARTESIAN_POINT('',(4.211305040423,117.45263156497));
#520 = CARTESIAN_POINT('',(4.175961880393,117.45263156497));
#521 = CARTESIAN_POINT('',(4.080145671121,117.45263156497));
#522 = CARTESIAN_POINT('',(4.019666532854,117.45263156497));
#523 = CARTESIAN_POINT('',(3.959189926156,117.45263156497));
#524 = CARTESIAN_POINT('',(3.898716483105,117.45263156497));
#525 = CARTESIAN_POINT('',(3.838243040054,117.45263156497));
#526 = CARTESIAN_POINT('',(3.777766433357,117.45263156497));
#527 = CARTESIAN_POINT('',(3.717287295089,117.45263156497));
#528 = CARTESIAN_POINT('',(3.565724243487,117.45263156497));
#529 = CARTESIAN_POINT('',(3.47459062496,117.45263156497));
#530 = CARTESIAN_POINT('',(3.38348070268,117.45263156497));
#531 = CARTESIAN_POINT('',(3.29238910097,117.45263156497));
#532 = CARTESIAN_POINT('',(3.201297499233,117.45263156497));
#533 = CARTESIAN_POINT('',(3.110187576969,117.45263156497));
#534 = CARTESIAN_POINT('',(3.019053958437,117.45263156497));
#535 = CARTESIAN_POINT('',(2.836874747854,117.45263156497));
#536 = CARTESIAN_POINT('',(2.745741129326,117.45263156497));
#537 = CARTESIAN_POINT('',(2.65463120705,117.45263156497));
#538 = CARTESIAN_POINT('',(2.563539605333,117.45263156497));
#539 = CARTESIAN_POINT('',(2.472448003603,117.45263156497));
#540 = CARTESIAN_POINT('',(2.381338081334,117.45263156497));
#541 = CARTESIAN_POINT('',(2.290204462805,117.45263156497));
#542 = CARTESIAN_POINT('',(2.138641411203,117.45263156497));
#543 = CARTESIAN_POINT('',(2.078162272935,117.45263156497));
#544 = CARTESIAN_POINT('',(2.017685666237,117.45263156497));
#545 = CARTESIAN_POINT('',(1.957212223187,117.45263156497));
#546 = CARTESIAN_POINT('',(1.896738780136,117.45263156497));
#547 = CARTESIAN_POINT('',(1.836262173438,117.45263156497));
#548 = CARTESIAN_POINT('',(1.77578303517,117.45263156497));
#549 = CARTESIAN_POINT('',(1.625004692993,117.45263156497));
#550 = CARTESIAN_POINT('',(1.534657634194,117.45263156497));
#551 = CARTESIAN_POINT('',(1.444333212525,117.45263156497));
#552 = CARTESIAN_POINT('',(1.354026433702,117.45263156497));
#553 = CARTESIAN_POINT('',(1.263719654864,117.45263156497));
#554 = CARTESIAN_POINT('',(1.173395233203,117.45263156497));
#555 = CARTESIAN_POINT('',(1.083048174401,117.45263156497));
#556 = CARTESIAN_POINT('',(0.901653673243,117.45263156497));
#557 = CARTESIAN_POINT('',(0.810520054712,117.45263156497));
#558 = CARTESIAN_POINT('',(0.719410132446,117.45263156497));
#559 = CARTESIAN_POINT('',(0.628318530712,117.45263156497));
#560 = CARTESIAN_POINT('',(0.537226928998,117.45263156497));
#561 = CARTESIAN_POINT('',(0.446117006721,117.45263156497));
#562 = CARTESIAN_POINT('',(0.354983388194,117.45263156497));
#563 = CARTESIAN_POINT('',(0.230907169578,117.45263156497));
#564 = CARTESIAN_POINT('',(0.197920274546,117.45263156497));
#565 = CARTESIAN_POINT('',(0.164933504738,117.45263156497));
#566 = CARTESIAN_POINT('',(0.131946891451,117.45263156497));
#567 = CARTESIAN_POINT('',(9.896027816341E-02,117.45263156497));
#568 = CARTESIAN_POINT('',(6.59735083556E-02,117.45263156497));
#569 = CARTESIAN_POINT('',(3.298661332417E-02,117.45263156497));
#570 = CARTESIAN_POINT('',(0.,117.45263156497));
#571 = ( GEOMETRIC_REPRESENTATION_CONTEXT(2) 
PARAMETRIC_REPRESENTATION_CONTEXT() REPRESENTATION_CONTEXT('2D SPACE',''
  ) );
#572 = ADVANCED_FACE('',(#573),#220,.F.);
#573 = FACE_BOUND('',#574,.F.);
#574 = EDGE_LOOP('',(#575,#677,#704,#705,#706));
#575 = ORIENTED_EDGE('',*,*,#576,.F.);
#576 = EDGE_CURVE('',#577,#145,#579,.T.);
#577 = VERTEX_POINT('',#578);
#578 = CARTESIAN_POINT('',(81.362188384455,0.,45.380430348003));
#579 = SEAM_CURVE('',#580,(#663,#670),.PCURVE_S1.);
#580 = B_SPLINE_CURVE_WITH_KNOTS('',3,(#581,#582,#583,#584,#585,#586,
    #587,#588,#589,#590,#591,#592,#593,#594,#595,#596,#597,#598,#599,
    #600,#601,#602,#603,#604,#605,#606,#607,#608,#609,#610,#611,#612,
    #613,#614,#615,#616,#617,#618,#619,#620,#621,#622,#623,#624,#625,
    #626,#627,#628,#629,#630,#631,#632,#633,#634,#635,#636,#637,#638,
    #639,#640,#641,#642,#643,#644,#645,#646,#647,#648,#649,#650,#651,
    #652,#653,#654,#655,#656,#657,#658,#659,#660,#661,#662),
  .UNSPECIFIED.,.F.,.F.,(4,1,1,1,1,1,1,1,1,1,1,1,1,1,1,1,1,1,1,1,1,1,1,1
    ,1,1,1,1,1,1,1,1,1,1,1,1,1,1,1,1,1,1,1,1,1,1,1,1,1,1,1,1,1,1,1,1,1,1
    ,1,1,1,1,1,1,1,1,1,1,1,1,1,1,1,1,1,1,1,1,1,4),(0.,2.102620705714,
    3.786520842662,5.891449825166,7.575513527002,9.259749250621,
    11.365377042617,13.050223178412,15.156807167807,16.842572705396,
    18.528845926375,20.637492294281,22.325130333176,24.435675045171,
    26.124985415699,27.815137528481,29.929101678163,31.621368714757,
    33.738167383931,35.432854430839,37.128714643053,39.250279103187,
    40.948997743882,43.074324072817,44.776202886428,46.479582659068,
    48.611006390908,50.317979292667,52.026644759593,54.164944266301,
    55.877632017251,58.021143872669,59.73814857524,61.45716595147,
    63.608853978233,65.332610119939,67.490402733656,69.219186851927,
    70.950297826643,73.117542939264,74.854095310662,77.028319498886,
    78.770596330671,80.51550752558,82.700433423197,84.451473163941,
    84.994668932387,85.099681411528,85.204693890669,85.335954936795,
    85.440967415936,85.572228462063,85.677240941204,85.782253420345,
    85.913514466471,86.018526945612,86.123539424753,87.113598827356,
    88.363610352651,89.925974216429,91.175985741724,92.425997267019,
    93.988361130797,95.238372656092,96.80073651987,98.050748045165,
    99.300759570459,100.86312343423,102.24674411408,104.14319072349,
    105.66034801101,107.17750529854,109.07395190794,110.59110919547,
    112.48755580488,114.0047130924,115.52187037993,117.41831698933,
    118.93547427686,120.45263156438),.UNSPECIFIED.);
#581 = CARTESIAN_POINT('',(81.362188384455,0.,45.380430348003));
#582 = CARTESIAN_POINT('',(80.671961084182,0.,45.258719523833));
#583 = CARTESIAN_POINT('',(79.429800105138,0.,45.03478067978));
#584 = CARTESIAN_POINT('',(77.499574298127,0.,44.673050634656));
#585 = CARTESIAN_POINT('',(75.708831254946,0.,44.324667110472));
#586 = CARTESIAN_POINT('',(73.920430141305,0.,43.963930152095));
#587 = CARTESIAN_POINT('',(72.134044023681,0.,43.592198814835));
#588 = CARTESIAN_POINT('',(70.349997914883,0.,43.208113323596));
#589 = CARTESIAN_POINT('',(68.431224975185,0.,42.781177163474));
#590 = CARTESIAN_POINT('',(66.651828732832,0.,42.372378559309));
#591 = CARTESIAN_POINT('',(64.87483185825,0.,41.951242222977));
#592 = CARTESIAN_POINT('',(63.099773703728,0.,41.519092224247));
#593 = CARTESIAN_POINT('',(61.327112982428,0.,41.074603045263));
#594 = CARTESIAN_POINT('',(59.420615066732,0.,40.582622375805));
#595 = CARTESIAN_POINT('',(57.65263028277,0.,40.113429247266));
#596 = CARTESIAN_POINT('',(55.887100537637,0.,39.631918208006));
#597 = CARTESIAN_POINT('',(54.12343473814,0.,39.139369591452));
#598 = CARTESIAN_POINT('',(52.36222219845,0.,38.634500929888));
#599 = CARTESIAN_POINT('',(50.468066139169,0.,38.077503110472));
#600 = CARTESIAN_POINT('',(48.711554209673,0.,37.547942104405));
#601 = CARTESIAN_POINT('',(46.957550922881,0.,37.006086920014));
#602 = CARTESIAN_POINT('',(45.205338624897,0.,36.453165760802));
#603 = CARTESIAN_POINT('',(43.455633359795,0.,35.887947610654));
#604 = CARTESIAN_POINT('',(41.573881803159,0.,35.265966086936));
#605 = CARTESIAN_POINT('',(39.828900042395,0.,34.676069374935));
#606 = CARTESIAN_POINT('',(38.086478060568,0.,34.073905825732));
#607 = CARTESIAN_POINT('',(36.345776198025,0.,33.460643593323));
#608 = CARTESIAN_POINT('',(34.607632953319,0.,32.835111148553));
#609 = CARTESIAN_POINT('',(32.872078061412,0.,32.197329463685));
#610 = CARTESIAN_POINT('',(31.138202727765,0.,31.548427912785));
#611 = CARTESIAN_POINT('',(29.406914719365,0.,30.887273345434));
#612 = CARTESIAN_POINT('',(27.545013868184,0.,30.161990412391));
#613 = CARTESIAN_POINT('',(25.818481395703,0.,29.476182922699));
#614 = CARTESIAN_POINT('',(24.094584024169,0.,28.778158595276));
#615 = CARTESIAN_POINT('',(22.372299396073,0.,28.068975382215));
#616 = CARTESIAN_POINT('',(20.652648782804,0.,27.347570814792));
#617 = CARTESIAN_POINT('',(18.803289291057,0.,26.557413465518));
#618 = CARTESIAN_POINT('',(17.088411278397,0.,25.811373756104));
#619 = CARTESIAN_POINT('',(15.376211298339,0.,25.053152618497));
#620 = CARTESIAN_POINT('',(13.665561106867,0.,24.283728129017));
#621 = CARTESIAN_POINT('',(11.957584600451,0.,23.502124455288));
#622 = CARTESIAN_POINT('',(10.120818287501,0.,22.647119097193));
#623 = CARTESIAN_POINT('',(8.417588970408,0.,21.840983174737));
#624 = CARTESIAN_POINT('',(6.717256782991,0.,21.022324555534));
#625 = CARTESIAN_POINT('',(5.017752939199,0.,20.193810271946));
#626 = CARTESIAN_POINT('',(3.323763532992,0.,19.347246151987));
#627 = CARTESIAN_POINT('',(1.984896464177,0.,18.687033910273));
#628 = CARTESIAN_POINT('',(1.278708768183,0.,18.310436886955));
#629 = CARTESIAN_POINT('',(1.049052853632,0.,18.208801895823));
#630 = CARTESIAN_POINT('',(0.943138058532,0.,18.167201745729));
#631 = CARTESIAN_POINT('',(0.835547108113,0.,18.130103109482));
#632 = CARTESIAN_POINT('',(0.718070785075,0.,18.095244300764));
#633 = CARTESIAN_POINT('',(0.60766733065,0.,18.067610053415));
#634 = CARTESIAN_POINT('',(0.496191026363,0.,18.044788833441));
#635 = CARTESIAN_POINT('',(0.383919880411,0.,18.026256541826));
#636 = CARTESIAN_POINT('',(0.270931074111,0.,18.012656990686));
#637 = CARTESIAN_POINT('',(0.157482871089,0.,18.003756251854));
#638 = CARTESIAN_POINT('',(-0.242398181254,0.,17.990454821815));
#639 = CARTESIAN_POINT('',(-1.024447898647,0.,18.020472522803));
#640 = CARTESIAN_POINT('',(-2.288592851574,0.,18.116023380675));
#641 = CARTESIAN_POINT('',(-3.628617419319,0.,18.323671817611));
#642 = CARTESIAN_POINT('',(-4.949652660221,0.,18.624736825165));
#643 = CARTESIAN_POINT('',(-6.24866493634,0.,19.010385444472));
#644 = CARTESIAN_POINT('',(-7.517149565532,0.,19.48874505957));
#645 = CARTESIAN_POINT('',(-8.841765377828,0.,20.100692887113));
#646 = CARTESIAN_POINT('',(-10.0282891867,0.,20.756477000163));
#647 = CARTESIAN_POINT('',(-11.16396157191,0.,21.495651419185));
#648 = CARTESIAN_POINT('',(-12.24967226163,0.,22.306255696312));
#649 = CARTESIAN_POINT('',(-13.30959982464,0.,23.22173837607));
#650 = CARTESIAN_POINT('',(-14.44399236978,0.,24.370714916058));
#651 = CARTESIAN_POINT('',(-15.57700917598,0.,25.498925439635));
#652 = CARTESIAN_POINT('',(-16.73865490827,0.,26.661711710209));
#653 = CARTESIAN_POINT('',(-17.90098893684,0.,27.823748033709));
#654 = CARTESIAN_POINT('',(-19.06313561327,0.,28.985988490492));
#655 = CARTESIAN_POINT('',(-20.31473741975,0.,30.23756752208));
#656 = CARTESIAN_POINT('',(-21.47692578283,0.,31.39976255834));
#657 = CARTESIAN_POINT('',(-22.6391180768,0.,32.561953311619));
#658 = CARTESIAN_POINT('',(-23.80130944095,0.,33.72414507801));
#659 = CARTESIAN_POINT('',(-24.96350105842,0.,34.886336568381));
#660 = CARTESIAN_POINT('',(-26.12569260076,0.,36.048528140623));
#661 = CARTESIAN_POINT('',(-26.84088740779,0.,36.763722941514));
#662 = CARTESIAN_POINT('',(-27.19848480983,0.,37.12132034356));
#663 = PCURVE('',#220,#664);
#664 = DEFINITIONAL_REPRESENTATION('',(#665),#669);
#665 = LINE('',#666,#667);
#666 = CARTESIAN_POINT('',(0.,0.));
#667 = VECTOR('',#668,1.);
#668 = DIRECTION('',(0.,1.));
#669 = ( GEOMETRIC_REPRESENTATION_CONTEXT(2) 
PARAMETRIC_REPRESENTATION_CONTEXT() REPRESENTATION_CONTEXT('2D SPACE',''
  ) );
#670 = PCURVE('',#220,#671);
#671 = DEFINITIONAL_REPRESENTATION('',(#672),#676);
#672 = LINE('',#673,#674);
#673 = CARTESIAN_POINT('',(6.28318530718,0.));
#674 = VECTOR('',#675,1.);
#675 = DIRECTION('',(0.,1.));
#676 = ( GEOMETRIC_REPRESENTATION_CONTEXT(2) 
PARAMETRIC_REPRESENTATION_CONTEXT() REPRESENTATION_CONTEXT('2D SPACE',''
  ) );
#677 = ORIENTED_EDGE('',*,*,#678,.T.);
#678 = EDGE_CURVE('',#577,#577,#679,.T.);
#679 = SURFACE_CURVE('',#680,(#685,#692),.PCURVE_S1.);
#680 = CIRCLE('',#681,45.380430348003);
#681 = AXIS2_PLACEMENT_3D('',#682,#683,#684);
#682 = CARTESIAN_POINT('',(81.362188384455,0.,0.));
#683 = DIRECTION('',(1.,0.,-0.));
#684 = DIRECTION('',(0.,0.,1.));
#685 = PCURVE('',#220,#686);
#686 = DEFINITIONAL_REPRESENTATION('',(#687),#691);
#687 = LINE('',#688,#689);
#688 = CARTESIAN_POINT('',(0.,0.));
#689 = VECTOR('',#690,1.);
#690 = DIRECTION('',(1.,0.));
#691 = ( GEOMETRIC_REPRESENTATION_CONTEXT(2) 
PARAMETRIC_REPRESENTATION_CONTEXT() REPRESENTATION_CONTEXT('2D SPACE',''
  ) );
#692 = PCURVE('',#693,#698);
#693 = CONICAL_SURFACE('',#694,42.426406871193,1.395497646258);
#694 = AXIS2_PLACEMENT_3D('',#695,#696,#697);
#695 = CARTESIAN_POINT('',(81.885395129878,0.,0.));
#696 = DIRECTION('',(-1.,-0.,-0.));
#697 = DIRECTION('',(-0.,0.,1.));
#698 = DEFINITIONAL_REPRESENTATION('',(#699),#703);
#699 = LINE('',#700,#701);
#700 = CARTESIAN_POINT('',(-0.,0.523206745424));
#701 = VECTOR('',#702,1.);
#702 = DIRECTION('',(-1.,0.));
#703 = ( GEOMETRIC_REPRESENTATION_CONTEXT(2) 
PARAMETRIC_REPRESENTATION_CONTEXT() REPRESENTATION_CONTEXT('2D SPACE',''
  ) );
#704 = ORIENTED_EDGE('',*,*,#576,.T.);
#705 = ORIENTED_EDGE('',*,*,#144,.T.);
#706 = ORIENTED_EDGE('',*,*,#366,.T.);
#707 = ADVANCED_FACE('',(#708),#693,.T.);
#708 = FACE_BOUND('',#709,.F.);
#709 = EDGE_LOOP('',(#710,#821,#842,#843));
#710 = ORIENTED_EDGE('',*,*,#711,.T.);
#711 = EDGE_CURVE('',#712,#712,#714,.T.);
#712 = VERTEX_POINT('',#713);
#713 = CARTESIAN_POINT('',(81.885395129878,0.,42.426406871193));
#714 = SURFACE_CURVE('',#715,(#720,#727),.PCURVE_S1.);
#715 = CIRCLE('',#716,42.426406871193);
#716 = AXIS2_PLACEMENT_3D('',#717,#718,#719);
#717 = CARTESIAN_POINT('',(81.885395129878,0.,0.));
#718 = DIRECTION('',(1.,0.,-0.));
#719 = DIRECTION('',(0.,0.,1.));
#720 = PCURVE('',#693,#721);
#721 = DEFINITIONAL_REPRESENTATION('',(#722),#726);
#722 = LINE('',#723,#724);
#723 = CARTESIAN_POINT('',(-0.,0.));
#724 = VECTOR('',#725,1.);
#725 = DIRECTION('',(-1.,0.));
#726 = ( GEOMETRIC_REPRESENTATION_CONTEXT(2) 
PARAMETRIC_REPRESENTATION_CONTEXT() REPRESENTATION_CONTEXT('2D SPACE',''
  ) );
#727 = PCURVE('',#728,#815);
#728 = SURFACE_OF_REVOLUTION('',#729,#812);
#729 = B_SPLINE_CURVE_WITH_KNOTS('',3,(#730,#731,#732,#733,#734,#735,
    #736,#737,#738,#739,#740,#741,#742,#743,#744,#745,#746,#747,#748,
    #749,#750,#751,#752,#753,#754,#755,#756,#757,#758,#759,#760,#761,
    #762,#763,#764,#765,#766,#767,#768,#769,#770,#771,#772,#773,#774,
    #775,#776,#777,#778,#779,#780,#781,#782,#783,#784,#785,#786,#787,
    #788,#789,#790,#791,#792,#793,#794,#795,#796,#797,#798,#799,#800,
    #801,#802,#803,#804,#805,#806,#807,#808,#809,#810,#811),
  .UNSPECIFIED.,.F.,.F.,(4,1,1,1,1,1,1,1,1,1,1,1,1,1,1,1,1,1,1,1,1,1,1,1
    ,1,1,1,1,1,1,1,1,1,1,1,1,1,1,1,1,1,1,1,1,1,1,1,1,1,1,1,1,1,1,1,1,1,1
    ,1,1,1,1,1,1,1,1,1,1,1,1,1,1,1,1,1,1,1,1,1,4),(0.,1.517157287525,
    3.034314575051,4.930761184457,6.447918471983,7.965075759508,
    9.861522368915,11.37867965644,13.275126265847,14.792283553372,
    16.309440840898,18.205887450305,19.685671744244,21.488399279373,
    22.930720270098,24.373041260822,26.175768795952,27.618089786676,
    29.420817321805,30.86313831253,32.305459303254,34.108186838383,
    35.550507829108,36.742483481028,36.962894288895,37.183305096762,
    37.45880905072,37.679219858587,37.899630666454,38.175134620413,
    38.395545428279,38.671049382238,38.891460190105,39.111870997972,
    39.766224459758,41.500309034571,43.663963537885,45.391796656166,
    47.116942158606,49.269678646803,50.988983091154,53.134597621954,
    54.848348707542,56.559724719401,58.695690900421,60.401934042739,
    62.531667706136,64.233072334866,65.93242166091,68.053806001962,
    69.748746407296,71.864806920701,73.555638688369,75.244741360934,
    77.353777722789,79.039209336098,80.723107282281,82.825913388481,
    84.506581997574,86.605543666101,88.283290934681,89.959839120062,
    92.05392972564,93.728004257222,95.819197374424,97.491109902009,
    99.162161897378,101.24985925706,102.91920150165,105.00495797786,
    106.67290477892,108.34033248444,110.42398022915,112.090467838,
    114.17313784543,115.83900128251,117.50468881732,119.58664425383,
    121.25216453287,123.3341086961),.UNSPECIFIED.);
#730 = CARTESIAN_POINT('',(-29.31980515339,0.,35.));
#731 = CARTESIAN_POINT('',(-28.96220775134,0.,34.642402597955));
#732 = CARTESIAN_POINT('',(-28.24701294511,0.,33.927207796248));
#733 = CARTESIAN_POINT('',(-27.08482139892,0.,32.765016227982));
#734 = CARTESIAN_POINT('',(-25.92262979782,0.,31.602824720715));
#735 = CARTESIAN_POINT('',(-24.76043838187,0.,30.440633007793));
#736 = CARTESIAN_POINT('',(-23.59824628632,0.,29.278442049714));
#737 = CARTESIAN_POINT('',(-22.43605706381,0.,28.116247900499));
#738 = CARTESIAN_POINT('',(-21.18445819048,0.,26.864665841518));
#739 = CARTESIAN_POINT('',(-20.0222994362,0.,25.702437850656));
#740 = CARTESIAN_POINT('',(-18.86000374866,0.,24.540361954174));
#741 = CARTESIAN_POINT('',(-17.69821112801,0.,23.377727291706));
#742 = CARTESIAN_POINT('',(-16.54311363564,0.,22.226249333819));
#743 = CARTESIAN_POINT('',(-15.32809026054,0.,20.999260639887));
#744 = CARTESIAN_POINT('',(-14.13416048625,0.,19.968838151398));
#745 = CARTESIAN_POINT('',(-12.88151259328,0.,19.033424277133));
#746 = CARTESIAN_POINT('',(-11.57109652756,0.,18.180557307699));
#747 = CARTESIAN_POINT('',(-10.20203842123,0.,17.423874252408));
#748 = CARTESIAN_POINT('',(-8.673633663903,0.,16.717785212913));
#749 = CARTESIAN_POINT('',(-7.209998093003,0.,16.165820567355));
#750 = CARTESIAN_POINT('',(-5.711137700821,0.,15.72087534312));
#751 = CARTESIAN_POINT('',(-4.186866091748,0.,15.373363058502));
#752 = CARTESIAN_POINT('',(-2.640684800763,0.,15.134329799472));
#753 = CARTESIAN_POINT('',(-1.16556361242,0.,15.021149150186));
#754 = CARTESIAN_POINT('',(-0.213511704484,0.,14.988977976463));
#755 = CARTESIAN_POINT('',(0.330539762257,0.,15.007959221913));
#756 = CARTESIAN_POINT('',(0.568657951524,0.,15.026539768155));
#757 = CARTESIAN_POINT('',(0.805809741615,0.,15.055115873456));
#758 = CARTESIAN_POINT('',(1.041455976693,0.,15.09400576791));
#759 = CARTESIAN_POINT('',(1.275433357471,0.,15.141907863488));
#760 = CARTESIAN_POINT('',(1.507160710513,0.,15.199905832594));
#761 = CARTESIAN_POINT('',(1.75372707432,0.,15.273081331287));
#762 = CARTESIAN_POINT('',(1.979569675198,0.,15.350905823209));
#763 = CARTESIAN_POINT('',(2.201811383712,0.,15.43835323674));
#764 = CARTESIAN_POINT('',(2.536097526088,0.,15.585351587921));
#765 = CARTESIAN_POINT('',(3.306432179466,0.,15.989900104001));
#766 = CARTESIAN_POINT('',(4.664799981715,0.,16.665533544976));
#767 = CARTESIAN_POINT('',(6.343193776231,0.,17.502036132813));
#768 = CARTESIAN_POINT('',(8.025867857739,0.,18.322865736742));
#769 = CARTESIAN_POINT('',(9.709525792919,0.,19.133361355943));
#770 = CARTESIAN_POINT('',(11.395905787959,0.,19.931565014312));
#771 = CARTESIAN_POINT('',(13.214433585933,0.,20.778070364105));
#772 = CARTESIAN_POINT('',(14.905362606626,0.,21.551875946986));
#773 = CARTESIAN_POINT('',(16.598867863853,0.,22.313588346245));
#774 = CARTESIAN_POINT('',(18.293818462906,0.,23.064171162976));
#775 = CARTESIAN_POINT('',(19.99135073812,0.,23.802664921415));
#776 = CARTESIAN_POINT('',(21.821921879256,0.,24.584794898388));
#777 = CARTESIAN_POINT('',(23.524026891394,0.,25.298839145482));
#778 = CARTESIAN_POINT('',(25.228673949383,0.,26.000759867115));
#779 = CARTESIAN_POINT('',(26.934837868641,0.,26.691603838925));
#780 = CARTESIAN_POINT('',(28.64354789505,0.,27.370332118947));
#781 = CARTESIAN_POINT('',(30.486156048876,0.,28.088099903569));
#782 = CARTESIAN_POINT('',(32.199438719983,0.,28.742378638657));
#783 = CARTESIAN_POINT('',(33.915224910907,0.,29.384510436014));
#784 = CARTESIAN_POINT('',(35.632604271236,0.,30.015613068605));
#785 = CARTESIAN_POINT('',(37.352491602624,0.,30.634575614047));
#786 = CARTESIAN_POINT('',(39.074859090626,0.,31.241378594603));
#787 = CARTESIAN_POINT('',(40.798866492637,0.,31.837178331763));
#788 = CARTESIAN_POINT('',(42.525358884274,0.,32.420824775278));
#789 = CARTESIAN_POINT('',(44.387116507302,0.,33.036197718987));
#790 = CARTESIAN_POINT('',(46.118181402592,0.,33.595394466064));
#791 = CARTESIAN_POINT('',(47.851684744753,0.,34.1424119689));
#792 = CARTESIAN_POINT('',(49.58691022001,0.,34.678466285276));
#793 = CARTESIAN_POINT('',(51.324579804673,0.,35.202346712338));
#794 = CARTESIAN_POINT('',(53.198373979898,0.,35.753356952793));
#795 = CARTESIAN_POINT('',(54.940615971616,0.,36.252787605773));
#796 = CARTESIAN_POINT('',(56.685253435534,0.,36.740022123972));
#797 = CARTESIAN_POINT('',(58.431698327875,0.,37.216328217814));
#798 = CARTESIAN_POINT('',(60.180544850748,0.,37.680442442766));
#799 = CARTESIAN_POINT('',(62.066375347345,0.,38.167089829675));
#800 = CARTESIAN_POINT('',(63.819794165608,0.,38.606754214966));
#801 = CARTESIAN_POINT('',(65.5755642012,0.,39.034208420187));
#802 = CARTESIAN_POINT('',(67.333229587784,0.,39.450763350801));
#803 = CARTESIAN_POINT('',(69.093252763946,0.,39.855111221674));
#804 = CARTESIAN_POINT('',(70.991119330672,0.,40.277395634769));
#805 = CARTESIAN_POINT('',(72.755714684226,0.,40.657293615714));
#806 = CARTESIAN_POINT('',(74.522615995885,0.,41.024970349237));
#807 = CARTESIAN_POINT('',(76.291502687355,0.,41.381771066865));
#808 = CARTESIAN_POINT('',(78.062702069753,0.,41.726352483633));
#809 = CARTESIAN_POINT('',(79.972604924402,0.,42.084273794037));
#810 = CARTESIAN_POINT('',(81.201954400491,0.,42.305898087243));
#811 = CARTESIAN_POINT('',(81.885395129878,0.,42.426406871193));
#812 = AXIS1_PLACEMENT('',#813,#814);
#813 = CARTESIAN_POINT('',(0.,0.,0.));
#814 = DIRECTION('',(1.,0.,0.));
#815 = DEFINITIONAL_REPRESENTATION('',(#816),#820);
#816 = LINE('',#817,#818);
#817 = CARTESIAN_POINT('',(0.,123.3341086961));
#818 = VECTOR('',#819,1.);
#819 = DIRECTION('',(1.,0.));
#820 = ( GEOMETRIC_REPRESENTATION_CONTEXT(2) 
PARAMETRIC_REPRESENTATION_CONTEXT() REPRESENTATION_CONTEXT('2D SPACE',''
  ) );
#821 = ORIENTED_EDGE('',*,*,#822,.T.);
#822 = EDGE_CURVE('',#712,#577,#823,.T.);
#823 = SEAM_CURVE('',#824,(#828,#835),.PCURVE_S1.);
#824 = LINE('',#825,#826);
#825 = CARTESIAN_POINT('',(81.885395129878,0.,42.426406871193));
#826 = VECTOR('',#827,1.);
#827 = DIRECTION('',(-0.174402248475,0.,0.98467449227));
#828 = PCURVE('',#693,#829);
#829 = DEFINITIONAL_REPRESENTATION('',(#830),#834);
#830 = LINE('',#831,#832);
#831 = CARTESIAN_POINT('',(-0.,0.));
#832 = VECTOR('',#833,1.);
#833 = DIRECTION('',(-0.,1.));
#834 = ( GEOMETRIC_REPRESENTATION_CONTEXT(2) 
PARAMETRIC_REPRESENTATION_CONTEXT() REPRESENTATION_CONTEXT('2D SPACE',''
  ) );
#835 = PCURVE('',#693,#836);
#836 = DEFINITIONAL_REPRESENTATION('',(#837),#841);
#837 = LINE('',#838,#839);
#838 = CARTESIAN_POINT('',(-6.28318530718,0.));
#839 = VECTOR('',#840,1.);
#840 = DIRECTION('',(-0.,1.));
#841 = ( GEOMETRIC_REPRESENTATION_CONTEXT(2) 
PARAMETRIC_REPRESENTATION_CONTEXT() REPRESENTATION_CONTEXT('2D SPACE',''
  ) );
#842 = ORIENTED_EDGE('',*,*,#678,.F.);
#843 = ORIENTED_EDGE('',*,*,#822,.F.);
#844 = ADVANCED_FACE('',(#845),#728,.F.);
#845 = FACE_BOUND('',#846,.F.);
#846 = EDGE_LOOP('',(#847,#949,#971,#972));
#847 = ORIENTED_EDGE('',*,*,#848,.F.);
#848 = EDGE_CURVE('',#849,#712,#851,.T.);
#849 = VERTEX_POINT('',#850);
#850 = CARTESIAN_POINT('',(-29.31980515339,0.,35.));
#851 = SEAM_CURVE('',#852,(#935,#942),.PCURVE_S1.);
#852 = B_SPLINE_CURVE_WITH_KNOTS('',3,(#853,#854,#855,#856,#857,#858,
    #859,#860,#861,#862,#863,#864,#865,#866,#867,#868,#869,#870,#871,
    #872,#873,#874,#875,#876,#877,#878,#879,#880,#881,#882,#883,#884,
    #885,#886,#887,#888,#889,#890,#891,#892,#893,#894,#895,#896,#897,
    #898,#899,#900,#901,#902,#903,#904,#905,#906,#907,#908,#909,#910,
    #911,#912,#913,#914,#915,#916,#917,#918,#919,#920,#921,#922,#923,
    #924,#925,#926,#927,#928,#929,#930,#931,#932,#933,#934),
  .UNSPECIFIED.,.F.,.F.,(4,1,1,1,1,1,1,1,1,1,1,1,1,1,1,1,1,1,1,1,1,1,1,1
    ,1,1,1,1,1,1,1,1,1,1,1,1,1,1,1,1,1,1,1,1,1,1,1,1,1,1,1,1,1,1,1,1,1,1
    ,1,1,1,1,1,1,1,1,1,1,1,1,1,1,1,1,1,1,1,1,1,4),(0.,1.517157287525,
    3.034314575051,4.930761184457,6.447918471983,7.965075759508,
    9.861522368915,11.37867965644,13.275126265847,14.792283553372,
    16.309440840898,18.205887450305,19.685671744244,21.488399279373,
    22.930720270098,24.373041260822,26.175768795952,27.618089786676,
    29.420817321805,30.86313831253,32.305459303254,34.108186838383,
    35.550507829108,36.742483481028,36.962894288895,37.183305096762,
    37.45880905072,37.679219858587,37.899630666454,38.175134620413,
    38.395545428279,38.671049382238,38.891460190105,39.111870997972,
    39.766224459758,41.500309034571,43.663963537885,45.391796656166,
    47.116942158606,49.269678646803,50.988983091154,53.134597621954,
    54.848348707542,56.559724719401,58.695690900421,60.401934042739,
    62.531667706136,64.233072334866,65.93242166091,68.053806001962,
    69.748746407296,71.864806920701,73.555638688369,75.244741360934,
    77.353777722789,79.039209336098,80.723107282281,82.825913388481,
    84.506581997574,86.605543666101,88.283290934681,89.959839120062,
    92.05392972564,93.728004257222,95.819197374424,97.491109902009,
    99.162161897378,101.24985925706,102.91920150165,105.00495797786,
    106.67290477892,108.34033248444,110.42398022915,112.090467838,
    114.17313784543,115.83900128251,117.50468881732,119.58664425383,
    121.25216453287,123.3341086961),.UNSPECIFIED.);
#853 = CARTESIAN_POINT('',(-29.31980515339,0.,35.));
#854 = CARTESIAN_POINT('',(-28.96220775134,0.,34.642402597955));
#855 = CARTESIAN_POINT('',(-28.24701294511,0.,33.927207796248));
#856 = CARTESIAN_POINT('',(-27.08482139892,0.,32.765016227982));
#857 = CARTESIAN_POINT('',(-25.92262979782,0.,31.602824720715));
#858 = CARTESIAN_POINT('',(-24.76043838187,0.,30.440633007793));
#859 = CARTESIAN_POINT('',(-23.59824628632,0.,29.278442049714));
#860 = CARTESIAN_POINT('',(-22.43605706381,0.,28.116247900499));
#861 = CARTESIAN_POINT('',(-21.18445819048,0.,26.864665841518));
#862 = CARTESIAN_POINT('',(-20.0222994362,0.,25.702437850656));
#863 = CARTESIAN_POINT('',(-18.86000374866,0.,24.540361954174));
#864 = CARTESIAN_POINT('',(-17.69821112801,0.,23.377727291706));
#865 = CARTESIAN_POINT('',(-16.54311363564,0.,22.226249333819));
#866 = CARTESIAN_POINT('',(-15.32809026054,0.,20.999260639887));
#867 = CARTESIAN_POINT('',(-14.13416048625,0.,19.968838151398));
#868 = CARTESIAN_POINT('',(-12.88151259328,0.,19.033424277133));
#869 = CARTESIAN_POINT('',(-11.57109652756,0.,18.180557307699));
#870 = CARTESIAN_POINT('',(-10.20203842123,0.,17.423874252408));
#871 = CARTESIAN_POINT('',(-8.673633663903,0.,16.717785212913));
#872 = CARTESIAN_POINT('',(-7.209998093003,0.,16.165820567355));
#873 = CARTESIAN_POINT('',(-5.711137700821,0.,15.72087534312));
#874 = CARTESIAN_POINT('',(-4.186866091748,0.,15.373363058502));
#875 = CARTESIAN_POINT('',(-2.640684800763,0.,15.134329799472));
#876 = CARTESIAN_POINT('',(-1.16556361242,0.,15.021149150186));
#877 = CARTESIAN_POINT('',(-0.213511704484,0.,14.988977976463));
#878 = CARTESIAN_POINT('',(0.330539762257,0.,15.007959221913));
#879 = CARTESIAN_POINT('',(0.568657951524,0.,15.026539768155));
#880 = CARTESIAN_POINT('',(0.805809741615,0.,15.055115873456));
#881 = CARTESIAN_POINT('',(1.041455976693,0.,15.09400576791));
#882 = CARTESIAN_POINT('',(1.275433357471,0.,15.141907863488));
#883 = CARTESIAN_POINT('',(1.507160710513,0.,15.199905832594));
#884 = CARTESIAN_POINT('',(1.75372707432,0.,15.273081331287));
#885 = CARTESIAN_POINT('',(1.979569675198,0.,15.350905823209));
#886 = CARTESIAN_POINT('',(2.201811383712,0.,15.43835323674));
#887 = CARTESIAN_POINT('',(2.536097526088,0.,15.585351587921));
#888 = CARTESIAN_POINT('',(3.306432179466,0.,15.989900104001));
#889 = CARTESIAN_POINT('',(4.664799981715,0.,16.665533544976));
#890 = CARTESIAN_POINT('',(6.343193776231,0.,17.502036132813));
#891 = CARTESIAN_POINT('',(8.025867857739,0.,18.322865736742));
#892 = CARTESIAN_POINT('',(9.709525792919,0.,19.133361355943));
#893 = CARTESIAN_POINT('',(11.395905787959,0.,19.931565014312));
#894 = CARTESIAN_POINT('',(13.214433585933,0.,20.778070364105));
#895 = CARTESIAN_POINT('',(14.905362606626,0.,21.551875946986));
#896 = CARTESIAN_POINT('',(16.598867863853,0.,22.313588346245));
#897 = CARTESIAN_POINT('',(18.293818462906,0.,23.064171162976));
#898 = CARTESIAN_POINT('',(19.99135073812,0.,23.802664921415));
#899 = CARTESIAN_POINT('',(21.821921879256,0.,24.584794898388));
#900 = CARTESIAN_POINT('',(23.524026891394,0.,25.298839145482));
#901 = CARTESIAN_POINT('',(25.228673949383,0.,26.000759867115));
#902 = CARTESIAN_POINT('',(26.934837868641,0.,26.691603838925));
#903 = CARTESIAN_POINT('',(28.64354789505,0.,27.370332118947));
#904 = CARTESIAN_POINT('',(30.486156048876,0.,28.088099903569));
#905 = CARTESIAN_POINT('',(32.199438719983,0.,28.742378638657));
#906 = CARTESIAN_POINT('',(33.915224910907,0.,29.384510436014));
#907 = CARTESIAN_POINT('',(35.632604271236,0.,30.015613068605));
#908 = CARTESIAN_POINT('',(37.352491602624,0.,30.634575614047));
#909 = CARTESIAN_POINT('',(39.074859090626,0.,31.241378594603));
#910 = CARTESIAN_POINT('',(40.798866492637,0.,31.837178331763));
#911 = CARTESIAN_POINT('',(42.525358884274,0.,32.420824775278));
#912 = CARTESIAN_POINT('',(44.387116507302,0.,33.036197718987));
#913 = CARTESIAN_POINT('',(46.118181402592,0.,33.595394466064));
#914 = CARTESIAN_POINT('',(47.851684744753,0.,34.1424119689));
#915 = CARTESIAN_POINT('',(49.58691022001,0.,34.678466285276));
#916 = CARTESIAN_POINT('',(51.324579804673,0.,35.202346712338));
#917 = CARTESIAN_POINT('',(53.198373979898,0.,35.753356952793));
#918 = CARTESIAN_POINT('',(54.940615971616,0.,36.252787605773));
#919 = CARTESIAN_POINT('',(56.685253435534,0.,36.740022123972));
#920 = CARTESIAN_POINT('',(58.431698327875,0.,37.216328217814));
#921 = CARTESIAN_POINT('',(60.180544850748,0.,37.680442442766));
#922 = CARTESIAN_POINT('',(62.066375347345,0.,38.167089829675));
#923 = CARTESIAN_POINT('',(63.819794165608,0.,38.606754214966));
#924 = CARTESIAN_POINT('',(65.5755642012,0.,39.034208420187));
#925 = CARTESIAN_POINT('',(67.333229587784,0.,39.450763350801));
#926 = CARTESIAN_POINT('',(69.093252763946,0.,39.855111221674));
#927 = CARTESIAN_POINT('',(70.991119330672,0.,40.277395634769));
#928 = CARTESIAN_POINT('',(72.755714684226,0.,40.657293615714));
#929 = CARTESIAN_POINT('',(74.522615995885,0.,41.024970349237));
#930 = CARTESIAN_POINT('',(76.291502687355,0.,41.381771066865));
#931 = CARTESIAN_POINT('',(78.062702069753,0.,41.726352483633));
#932 = CARTESIAN_POINT('',(79.972604924402,0.,42.084273794037));
#933 = CARTESIAN_POINT('',(81.201954400491,0.,42.305898087243));
#934 = CARTESIAN_POINT('',(81.885395129878,0.,42.426406871193));
#935 = PCURVE('',#728,#936);
#936 = DEFINITIONAL_REPRESENTATION('',(#937),#941);
#937 = LINE('',#938,#939);
#938 = CARTESIAN_POINT('',(0.,0.));
#939 = VECTOR('',#940,1.);
#940 = DIRECTION('',(0.,1.));
#941 = ( GEOMETRIC_REPRESENTATION_CONTEXT(2) 
PARAMETRIC_REPRESENTATION_CONTEXT() REPRESENTATION_CONTEXT('2D SPACE',''
  ) );
#942 = PCURVE('',#728,#943);
#943 = DEFINITIONAL_REPRESENTATION('',(#944),#948);
#944 = LINE('',#945,#946);
#945 = CARTESIAN_POINT('',(6.28318530718,0.));
#946 = VECTOR('',#947,1.);
#947 = DIRECTION('',(0.,1.));
#948 = ( GEOMETRIC_REPRESENTATION_CONTEXT(2) 
PARAMETRIC_REPRESENTATION_CONTEXT() REPRESENTATION_CONTEXT('2D SPACE',''
  ) );
#949 = ORIENTED_EDGE('',*,*,#950,.T.);
#950 = EDGE_CURVE('',#849,#849,#951,.T.);
#951 = SURFACE_CURVE('',#952,(#957,#964),.PCURVE_S1.);
#952 = CIRCLE('',#953,35.);
#953 = AXIS2_PLACEMENT_3D('',#954,#955,#956);
#954 = CARTESIAN_POINT('',(-29.31980515339,0.,0.));
#955 = DIRECTION('',(1.,0.,-0.));
#956 = DIRECTION('',(0.,0.,1.));
#957 = PCURVE('',#728,#958);
#958 = DEFINITIONAL_REPRESENTATION('',(#959),#963);
#959 = LINE('',#960,#961);
#960 = CARTESIAN_POINT('',(0.,0.));
#961 = VECTOR('',#962,1.);
#962 = DIRECTION('',(1.,0.));
#963 = ( GEOMETRIC_REPRESENTATION_CONTEXT(2) 
PARAMETRIC_REPRESENTATION_CONTEXT() REPRESENTATION_CONTEXT('2D SPACE',''
  ) );
#964 = PCURVE('',#94,#965);
#965 = DEFINITIONAL_REPRESENTATION('',(#966),#970);
#966 = CIRCLE('',#967,35.);
#967 = AXIS2_PLACEMENT_2D('',#968,#969);
#968 = CARTESIAN_POINT('',(3.889607488112E-15,-2.052637289391E-15));
#969 = DIRECTION('',(0.,1.));
#970 = ( GEOMETRIC_REPRESENTATION_CONTEXT(2) 
PARAMETRIC_REPRESENTATION_CONTEXT() REPRESENTATION_CONTEXT('2D SPACE',''
  ) );
#971 = ORIENTED_EDGE('',*,*,#848,.T.);
#972 = ORIENTED_EDGE('',*,*,#711,.F.);
#973 = ADVANCED_FACE('',(#974,#977),#94,.F.);
#974 = FACE_BOUND('',#975,.F.);
#975 = EDGE_LOOP('',(#976));
#976 = ORIENTED_EDGE('',*,*,#79,.T.);
#977 = FACE_BOUND('',#978,.F.);
#978 = EDGE_LOOP('',(#979));
#979 = ORIENTED_EDGE('',*,*,#950,.F.);
#980 = ( GEOMETRIC_REPRESENTATION_CONTEXT(3) 
GLOBAL_UNCERTAINTY_ASSIGNED_CONTEXT((#984)) GLOBAL_UNIT_ASSIGNED_CONTEXT
((#981,#982,#983)) REPRESENTATION_CONTEXT('Context #1',
  '3D Context with UNIT and UNCERTAINTY') );
#981 = ( LENGTH_UNIT() NAMED_UNIT(*) SI_UNIT(.MILLI.,.METRE.) );
#982 = ( NAMED_UNIT(*) PLANE_ANGLE_UNIT() SI_UNIT($,.RADIAN.) );
#983 = ( NAMED_UNIT(*) SI_UNIT($,.STERADIAN.) SOLID_ANGLE_UNIT() );
#984 = UNCERTAINTY_MEASURE_WITH_UNIT(LENGTH_MEASURE(1.E-06),#981,
  'distance_accuracy_value','confusion accuracy');
#985 = PRODUCT_RELATED_PRODUCT_CATEGORY('part',$,(#7));
ENDSEC;
END-ISO-10303-21;
